<mxfile host="app.diagrams.net" modified="2022-09-28T04:28:25.193Z" agent="5.0 (Windows NT 10.0; Win64; x64) AppleWebKit/537.36 (KHTML, like Gecko) Chrome/102.0.0.0 Safari/537.36" etag="Ls-02WJgRQXPrBIL5UVm" version="20.3.7" type="github">
  <diagram name="Page-1" id="12e1b939-464a-85fe-373e-61e167be1490">
    <mxGraphModel dx="1422" dy="794" grid="1" gridSize="10" guides="1" tooltips="1" connect="1" arrows="1" fold="1" page="1" pageScale="1.5" pageWidth="1169" pageHeight="826" background="none" math="0" shadow="0">
      <root>
        <mxCell id="0" />
        <mxCell id="1" parent="0" />
        <mxCell id="tFL_z6fTOWI6ww-LD4Xw-5" value="" style="whiteSpace=wrap;html=1;rounded=1;shadow=0;strokeWidth=8;fontSize=20;align=center;fillColor=#85FE61;strokeColor=#FFFFFF;" vertex="1" parent="1">
          <mxGeometry x="226" y="230" width="1384" height="740" as="geometry" />
        </mxCell>
        <mxCell id="60da8b9f42644d3a-2" value="" style="whiteSpace=wrap;html=1;rounded=1;shadow=0;strokeWidth=8;fontSize=20;align=center;fillColor=#99FFFF;strokeColor=#FFFFFF;" parent="1" vertex="1">
          <mxGeometry x="316" y="350" width="280" height="570" as="geometry" />
        </mxCell>
        <mxCell id="60da8b9f42644d3a-3" value="ExceptionHandling" style="text;html=1;strokeColor=none;fillColor=none;align=center;verticalAlign=middle;whiteSpace=wrap;rounded=0;shadow=0;fontSize=27;fontColor=#000000;fontStyle=1" parent="1" vertex="1">
          <mxGeometry x="315" y="367" width="280" height="60" as="geometry" />
        </mxCell>
        <mxCell id="60da8b9f42644d3a-4" value="Thisi is the try catch block &lt;br&gt;arround the application&lt;br&gt;" style="text;html=1;strokeColor=none;fillColor=none;align=center;verticalAlign=middle;whiteSpace=wrap;rounded=0;shadow=0;fontSize=14;fontColor=#000000;" parent="1" vertex="1">
          <mxGeometry x="316" y="725" width="280" height="90" as="geometry" />
        </mxCell>
        <mxCell id="60da8b9f42644d3a-7" value="" style="line;strokeWidth=2;html=1;rounded=0;shadow=0;fontSize=27;align=center;fillColor=none;strokeColor=#FFFFFF;" parent="1" vertex="1">
          <mxGeometry x="336" y="705" width="240" height="10" as="geometry" />
        </mxCell>
        <mxCell id="60da8b9f42644d3a-17" value="" style="whiteSpace=wrap;html=1;rounded=1;shadow=0;strokeWidth=8;fontSize=20;align=center;fillColor=#99FFFF;strokeColor=#FFFFFF;" parent="1" vertex="1">
          <mxGeometry x="596" y="380" width="280" height="510" as="geometry" />
        </mxCell>
        <mxCell id="60da8b9f42644d3a-18" value="Argument Parsing" style="text;html=1;strokeColor=none;fillColor=none;align=center;verticalAlign=middle;whiteSpace=wrap;rounded=0;shadow=0;fontSize=27;fontColor=#000000;fontStyle=1" parent="1" vertex="1">
          <mxGeometry x="596" y="398" width="280" height="60" as="geometry" />
        </mxCell>
        <mxCell id="60da8b9f42644d3a-19" value="Forms&lt;div&gt;Calls-to-Action&lt;/div&gt;&lt;div&gt;Landing Pages&lt;/div&gt;" style="text;html=1;strokeColor=none;fillColor=none;align=center;verticalAlign=middle;whiteSpace=wrap;rounded=0;shadow=0;fontSize=14;fontColor=#000000;" parent="1" vertex="1">
          <mxGeometry x="596" y="725" width="280" height="90" as="geometry" />
        </mxCell>
        <mxCell id="60da8b9f42644d3a-21" value="" style="line;strokeWidth=2;html=1;rounded=0;shadow=0;fontSize=27;align=center;fillColor=none;strokeColor=#FFFFFF;" parent="1" vertex="1">
          <mxGeometry x="616" y="705" width="240" height="10" as="geometry" />
        </mxCell>
        <mxCell id="60da8b9f42644d3a-24" value="" style="whiteSpace=wrap;html=1;rounded=1;shadow=0;strokeWidth=8;fontSize=20;align=center;fillColor=#99FFFF;strokeColor=#FFFFFF;" parent="1" vertex="1">
          <mxGeometry x="876" y="405" width="280" height="465" as="geometry" />
        </mxCell>
        <mxCell id="60da8b9f42644d3a-25" value="Argument Mapping" style="text;html=1;strokeColor=none;fillColor=none;align=center;verticalAlign=middle;whiteSpace=wrap;rounded=0;shadow=0;fontSize=27;fontColor=#000000;fontStyle=1" parent="1" vertex="1">
          <mxGeometry x="876" y="425" width="280" height="60" as="geometry" />
        </mxCell>
        <mxCell id="60da8b9f42644d3a-26" value="Email&lt;div&gt;Signals&lt;/div&gt;&lt;div&gt;Workflows&lt;/div&gt;" style="text;html=1;strokeColor=none;fillColor=none;align=center;verticalAlign=middle;whiteSpace=wrap;rounded=0;shadow=0;fontSize=14;fontColor=#000000;" parent="1" vertex="1">
          <mxGeometry x="876" y="725" width="280" height="90" as="geometry" />
        </mxCell>
        <mxCell id="60da8b9f42644d3a-28" value="" style="line;strokeWidth=2;html=1;rounded=0;shadow=0;fontSize=27;align=center;fillColor=none;strokeColor=#FFFFFF;" parent="1" vertex="1">
          <mxGeometry x="896" y="705" width="240" height="10" as="geometry" />
        </mxCell>
        <mxCell id="60da8b9f42644d3a-31" value="" style="whiteSpace=wrap;html=1;rounded=1;shadow=0;strokeWidth=8;fontSize=20;align=center;fillColor=#99FFFF;strokeColor=#FFFFFF;" parent="1" vertex="1">
          <mxGeometry x="1156" y="441" width="280" height="395" as="geometry" />
        </mxCell>
        <mxCell id="60da8b9f42644d3a-32" value="Execution" style="text;html=1;strokeColor=none;fillColor=none;align=center;verticalAlign=middle;whiteSpace=wrap;rounded=0;shadow=0;fontSize=27;fontColor=#000000;fontStyle=1" parent="1" vertex="1">
          <mxGeometry x="1156" y="446" width="280" height="60" as="geometry" />
        </mxCell>
        <mxCell id="60da8b9f42644d3a-33" value="The IApplicationLogic is executed" style="text;html=1;strokeColor=none;fillColor=none;align=center;verticalAlign=middle;whiteSpace=wrap;rounded=0;shadow=0;fontSize=14;fontColor=#000000;" parent="1" vertex="1">
          <mxGeometry x="1156" y="725" width="280" height="90" as="geometry" />
        </mxCell>
        <mxCell id="tFL_z6fTOWI6ww-LD4Xw-6" value="Execution Pipeline &amp;amp; Middleware" style="text;html=1;strokeColor=none;fillColor=none;align=center;verticalAlign=middle;whiteSpace=wrap;rounded=0;shadow=0;fontSize=27;fontColor=#000000;fontStyle=1" vertex="1" parent="1">
          <mxGeometry x="280" y="270" width="1210" height="60" as="geometry" />
        </mxCell>
        <mxCell id="tFL_z6fTOWI6ww-LD4Xw-21" value="" style="shape=singleArrow;whiteSpace=wrap;html=1;rounded=0;shadow=0;fontFamily=Helvetica;fontSize=27;fontColor=#000000;fillColor=#000000;gradientColor=none;arrowWidth=0.4666666666666667;arrowSize=0.24;" vertex="1" parent="1">
          <mxGeometry x="566" y="458" width="50" height="30" as="geometry" />
        </mxCell>
        <mxCell id="tFL_z6fTOWI6ww-LD4Xw-22" value="" style="shape=singleArrow;whiteSpace=wrap;html=1;rounded=0;shadow=0;fontFamily=Helvetica;fontSize=27;fontColor=#000000;fillColor=#000000;gradientColor=none;arrowWidth=0.4666666666666667;arrowSize=0.24;" vertex="1" parent="1">
          <mxGeometry x="852" y="497" width="50" height="30" as="geometry" />
        </mxCell>
        <mxCell id="tFL_z6fTOWI6ww-LD4Xw-23" value="" style="shape=singleArrow;whiteSpace=wrap;html=1;rounded=0;shadow=0;fontFamily=Helvetica;fontSize=27;fontColor=#000000;fillColor=#000000;gradientColor=none;arrowWidth=0.4666666666666667;arrowSize=0.24;" vertex="1" parent="1">
          <mxGeometry x="1136" y="533" width="50" height="30" as="geometry" />
        </mxCell>
        <mxCell id="tFL_z6fTOWI6ww-LD4Xw-25" value="" style="shape=singleArrow;whiteSpace=wrap;html=1;rounded=0;shadow=0;fontFamily=Helvetica;fontSize=27;fontColor=#000000;fillColor=#000000;gradientColor=none;arrowWidth=0.4666666666666667;arrowSize=0.24;rotation=-180;" vertex="1" parent="1">
          <mxGeometry x="1130" y="607" width="50" height="30" as="geometry" />
        </mxCell>
        <mxCell id="tFL_z6fTOWI6ww-LD4Xw-26" value="" style="shape=singleArrow;whiteSpace=wrap;html=1;rounded=0;shadow=0;fontFamily=Helvetica;fontSize=27;fontColor=#000000;fillColor=#000000;gradientColor=none;arrowWidth=0.4666666666666667;arrowSize=0.24;rotation=-180;" vertex="1" parent="1">
          <mxGeometry x="849" y="639" width="50" height="30" as="geometry" />
        </mxCell>
        <mxCell id="tFL_z6fTOWI6ww-LD4Xw-28" value="" style="shape=singleArrow;whiteSpace=wrap;html=1;rounded=0;shadow=0;fontFamily=Helvetica;fontSize=27;fontColor=#000000;fillColor=#000000;gradientColor=none;arrowWidth=0.4666666666666667;arrowSize=0.24;rotation=-180;" vertex="1" parent="1">
          <mxGeometry x="566" y="669" width="50" height="30" as="geometry" />
        </mxCell>
      </root>
    </mxGraphModel>
  </diagram>
</mxfile>
